<svg xmlns="http://www.w3.org/2000/svg" viewBox="0 0 1744 1744" fill="none" shape-rendering="auto" aria-hidden="true" width="512" height="512"><metadata xmlns:rdf="http://www.w3.org/1999/02/22-rdf-syntax-ns#" xmlns:xsi="http://www.w3.org/2001/XMLSchema-instance" xmlns:dc="http://purl.org/dc/elements/1.1/" xmlns:dcterms="http://purl.org/dc/terms/"><rdf:RDF><rdf:Description><dc:title>Notionists</dc:title><dc:creator>Zoish</dc:creator><dc:source xsi:type="dcterms:URI">https://heyzoish.gumroad.com/l/notionists</dc:source><dcterms:license xsi:type="dcterms:URI">https://creativecommons.org/publicdomain/zero/1.0/</dcterms:license><dc:rights>Remix of “Notionists” (https://heyzoish.gumroad.com/l/notionists) by “Zoish”, licensed under “CC0 1.0” (https://creativecommons.org/publicdomain/zero/1.0/)</dc:rights></rdf:Description></rdf:RDF></metadata><defs><g id="head-variant01-06ffd362"><path d="M553 723.7c-99 297-363.7 388.6-503.6 19.8-19.3-50.7 31-69.5 66.2-91.9 24.1-15.3 36.8-28.5 35.3-42.2C144 545 114 365.6 114 365.6l-3-5.8s.7-1.6-2.2 1.2c-3 3-9.9 34.2-37 34.2-24.5 0-49.2-10.9-61-86.3C6.3 281.6 8.7 210 39 197c12.5-5.3 24-7.2 35.2-.8s-13-22 112-126C267.5 2.4 395.8-7.5 447.6 4S551 40.8 574 94.5c27.8 65-25.9 114.3-14 262.5-2.2 53.6.8 171.2-146.6 210.6-28 7.5-19.3 48.4 22.7 58.4 67 21 117 72.3 117 97.9" fill="white"/><path d="M7.6 228.9c5.2-16.1 23.7-44.7 42.2-42C71.7 185 83.8 198 94 213a140 140 0 0 1 22.4 61.5c.5 3.7 1 7.6-1.2 11.3-4.5.6-4.9-3-5-5.6-.5-20.7-9.7-38.7-18.9-56.1-6.6-12.5-16.2-24.6-31.4-27.6-17.2-3.5-33 12-40.8 32.2-14.5 37.6-12 74.6 1.4 111 5.8 15.9 13.1 32.1 27.8 43.2 14.8 11.3 32.7 9.3 43.6-5.7 2.5-3.4 5.6-6.7 7-10.6 2.1-5.7 5.4-11 11.3-10.3 6.8 1 8 8.3 8.7 14C126.2 436 137 501 147 566c2.6 17.1 5.6 41.7 3.6 52.1-.7 3.7 0 7-4.5 7.8-4.9.7-7-2.1-7.7-6.5-2.3-17-3-23.6-4-49.6-1.2-34.3-9.6-68-15.3-102a604 604 0 0 1-10.9-97c-8.5 12.7-14.8 23.3-26.5 27.2a40.5 40.5 0 0 1-46.1-12.6 128 128 0 0 1-28.8-55.8c-8.4-34-9.9-67.1.9-100.6m572.7-71.5c6.5 4.4 5.7 10 3.7 15.2-21.6 55.7-17.6 113.8-15.8 171.6 2.1 66.4-14.5 126.8-58.7 177.5-15.4 17.6-35.8 29.8-56.5 40.3-21.4 11-25.9 20.1-19.2 43.6 1.3 4.7 4.4 9.6-.2 14.4s-9.8 3.1-15.4 1.7a406 406 0 0 1-137-68.3c-6-4.5-11-10.6-15.8-16.5-2.5-3-3-7.8.5-10.4 3.7-2.9 6.4.1 9.8 2.7A146 146 0 0 0 352 561c21 2.1 41.5-.2 62.3-.1 11.5 0 20.6-5.9 29.5-10.8 27.8-15.5 54.3-32.8 72.2-60.7a230 230 0 0 0 31.6-80.9c9.6-48 5.3-96.6 5.5-146.2 4.2-36.9 8.1-72.7 27.3-104.8M60.6 238.6c21 1 34.7 28 35.8 70.3-6 18.8-12.8-1-21 2.7-4 14.5 15.1 20 16.3 34-14-.6-21.1-9.3-25.9-19.8-5.5-12.2-1-22.2 9.7-29.9-6.7-13.4-21.7-18-30-30.5 10-3.5 15.1 2.9 21 6.8 5.9 4 9 11.3 17 15-.8-19.8-11.7-34-23-48.6" fill="black"/></g><g id="clothes-variant23-06ffd362"><path d="M1340.4 725.7 36.7 722.4s33.4-209.7 96.2-329c17-32.4 81-128.7 141.8-189.6 40.8-41 87.7-56 89-62 2.2-9.7-11-41.4-8.8-48.5 8.1-25.5 9.5.8 42.1-31.8 18.3-18.2 1.4-29.6 21.6-43.2 29.8-20 60-8.7 87-7.6 18 .7 12.4 50.3 27.3 62.5 40.3 32.9 91.8 54 128 63.5 46.1 12.2 61.6-2.5 85.4-12.2s38.5 12.2 68.9-33.2c14.2-21.2-11-42.6 8.2-54 30.2-17.9 75.8-17.3 94.7-7.7 28.9 14.8 16.3 41.6 16.3 41.6s35.7 11.6 43 22c7.2 10 5 44 5 44s-2.8-13.7 63.4 23.5c84.2 47.4 179.2 187.2 223 296 46.6 115.8 71.6 269 71.6 269" fill="white"/><path d="M1334 725.7c-9.4-38.5-16.9-77.2-25.6-115.7q-9.6-41.5-22.4-82.2c-9.5-30.6-19.5-61-33-90.4q-14.4-31-29.5-61.5a673 673 0 0 0-57.7-92.4 470 470 0 0 0-60.5-70 343 343 0 0 0-83-57.4c-3-1.5-6.6-2.3-9.2-4.3-17-12.7-33.7-6.3-44.8 12.9-30.8 53.2-78.6 77.6-137.2 85.4a19 19 0 0 1-6.4 0c-5.6-1.2-13.6-1.2-13-9.1.7-6.9 8-4.5 12.7-5.1 43.7-5.8 84-19.6 113.4-54.3 12.4-14.8 21.6-32.4 31.3-49.3a34.3 34.3 0 0 0-23.7-50.5c-11.8-2.5-19.5-6.3-16.2-21.4 2-9.6-4.8-18.9-13.2-23-10.4-5-21.7-9.1-34.5-5.6-11.7 3.3-24.2 4.1-36.3 6-7.1 1-12.2 5.8-18 9.4-4.4 2.8-4.4 6.4-2.5 11 7 17.4 1 39.8-13.9 51-14.7 11.2-30.4 20.2-50 18.4q-7.1-.6-12.8 4.4c-14 11.8-30.4 14.5-48.7 14.3-38.8-.4-74.2-12.6-109.2-27.3-7.8-3.3-13.6-12.6-26.5-7.5 27 34.9 67 48.4 105.6 67.6a26 26 0 0 1-24.8 3c-51.4-17.5-91.9-47.6-117.2-97-8.4-16.5-14.9-33-18.1-51-2.3-12.6-5.7-13.8-17.6-8.4-13.2 6-24.9 14.3-35.7 23.6-12.5 10.8-20 24-18.1 41.5 1 8.4 0 17 .2 25.6a47 47 0 0 0 35.2 46 37 37 0 0 1 18.4 10.8c-14.6 6.6-40.5-1.2-53-15.9-33.7-39.8-20.4-108.6 25.8-132.8l5-2.8a40 40 0 0 0-54 19 81 81 0 0 1-39.3 43c-15.3 7.7-19.8 28.7-7.8 39.4 23.4 20.8 43 45.8 69.9 62.6 15.4 9.6 30.1 21 46.7 28 15.8 6.5 33.6 8.4 50.6 11.8 5 1 10.2.8 13.3 5.6.3 3.4-1.7 5.6-4.4 5.5-32.1-1.5-63.4-4.4-92-23a438 438 0 0 1-69-54.1c-11-11-23.1-6.1-34 0-39 22-72.5 50.9-102.9 83.7a615 615 0 0 0-87.4 123 871 871 0 0 0-50.5 108A1198 1198 0 0 0 74 576.3a558 558 0 0 0-20.6 102.1c-1.3 15.2-7.3 29.7-7.9 46.2-5.5 1-10.8 1-17.1 1q6.8-49.5 16.2-98.8c3.7-19.1 9.2-37.9 13.7-56.8 5.6-23.6 13.4-46.5 21.2-69.4a832 832 0 0 1 84-179q25.4-40.5 57-76c36.7-41.1 76.3-78 126-103 6.4-3.3 9.3-7 4.1-15.1-9.3-14.7-5.9-45.7 15.3-55.4 16.6-7.6 26.6-22 34.3-37.8A56 56 0 0 1 451.7 1l58.8-1c9 0 14.1 1.6 10.1 12.7-2.5 7-1.7 14.5 5.4 19.5a9 9 0 0 1 4 6.1c4.4 31 27.1 45.6 52.1 57.7 19.8 9.6 39.6 20.3 60.5 26.3 21.8 6.3 44.5 12.1 67.7 10.5a46 46 0 0 0 26.9-10.8c6.3-5.4 14.2-4.9 21.6-6.4 17-3.4 32.5-9.8 45-22 11.2-11.3 12-22 3.3-35.4-7.7-11.9-3.3-33.8 8.5-40.8 3.5-2 8.7-2.8 9.8 1.6 3 11.4 9.8 6.6 15.9 4.8a159 159 0 0 1 55.3-8.2A58 58 0 0 1 933 31.2c7.8 6.9 9.7 15.6 9.8 25.3 0 7.6 2.4 11.9 11 13.9C978.6 76 987.7 88 988 113.5c0 5.3 1.4 8.3 6.3 11 34.6 18.7 70.4 35.4 101.6 60 29.3 23 53 51.1 75.5 80.4A719 719 0 0 1 1272 441.8q27.3 69.8 46.4 142.4c12 46 16 93.5 27.1 140.6-3.2.9-6.7.9-11.4.9" fill="black"/><path d="M1149.7 725.7c-9.3-36.4-12.3-73.8-22.2-110-7.8-28.4-14-57.4-24.2-85-7.2-19.4-14-39-23.5-57.7-12.7-25-23.3-51.2-34.7-77-1.4-3-2.8-6.3 1.4-8.8 4.4-2.7 7.6-.6 9.9 2.7 5 7.3 10.2 14.6 14.3 22.5 16 31.2 31.8 62.7 42.9 96 7.5 22.8 15.6 45.5 21.2 69 3.9 16.5 8.2 33 12 49.4q10.6 48.4 14.5 97.9c-3.4 1-7 1-11.6 1m-903.7 0a451 451 0 0 1 4.4-86.5c3.7-29 4.4-58.3 11-87 3.9-17 9-33.6 13-50.4a338 338 0 0 1 34.6-92.4l7.4-12c2.3-3.3 4.1-8.7 9.5-6.2 5.7 2.8 3.2 8.2 1.8 12.4a320 320 0 0 1-10 26.1c-18 40-33 81.2-40.6 124-7.3 42-15.8 84.3-14 127.6.7 14-1.6 28-2.6 43.2-4.5 1.2-9 1.2-14.4 1.2m410.2-330.2c-1.5-9.8 2.8-16.7 6.6-23.8 11.4-21.4 8.4-30-11.6-42.7-17.7-11.3-35.3-23-44.2-44-5.8-14-4.4-28.3-6.2-42.4-1-7.2 2.4-16 12.3-16.7 9.4-.6 20.9-3.5 25.6 8.4 3.4 8.6 2.1 17-6.2 24-15 12.8-13.9 19.7 3.7 29.1 13.8 7.4 28.5 13.3 40.5 23.9 23.8 21 26 56 4.5 79.2-6.8 7.3-7.8 15.3-6 24.6.9 4.3 2.7 10.2-3.1 12.3-5.3 2-6.5-4-9.2-7-6.3-6.8-7.1-15-6.7-24.9m175 37.7c1.2 3.4 4.6 5.2 3 8.6-20.6.3-34.9-24.4-26-44 5-11.3 13.4-20.6 15.8-33.3 3-16.5 0-25.2-15-32.3-27-12.9-39.8-33-35.3-63.4 1.4-9.4 1.4-17.6-11.8-20.7-9-2.2-11.2-12.2-9.2-21 2-8.5 8.8-13.9 17-12.6 7.6 1.3 17.4 3.5 16.7 15.4-.2 3-.4 6.1 2 8.4 11 11 8.6 24.1 6 37.1-2.2 11.1 0 20.3 9.8 26.8 6.4 4.2 12.5 8.9 19.2 12.6a49 49 0 0 1 13 78.4c-14.3 16-15.7 25.7-5.2 40M878 119.7c16.8-7 17.8-16.8 17.5-33.6 0-5-2.4-10 .8-14.9 11.1 2.4 17.6 16.4 14 30a48 48 0 0 1-48.7 35.4 42 42 0 0 0-31.2 13c-7.7 7-16.5 10.5-27 4.4 18.8-9.4 31.1-30.8 55.7-28.2 6.8.7 12-3.5 18.8-6" fill="black"/></g><g id="hair-variant25-06ffd362"><path d="M800.8 336.9c-1.3-5.4-2-10.1-5.6-13.7-8.6 33 .4 28.8-36.4 29.5-54 1.2-108 3.8-161.3 12.5-16.2 2.6-25.3-2.3-26-21.8-12.3 11.1-12.8 24.7-18.8 35.3-16.7 30.1-37.2 57.5-69.2 72a63 63 0 0 1-58.5-4.8 213 213 0 0 1-47 88.7c-7.4-10.8-8.6-23.7-12.1-35.5-5.7-18.7-21-33.8-39-35.3-13.4-1.2-36 13.6-42.4 27.5q-5.7 12-11.7 23.6c-1.6-.2-3-.1-3-.4-8.2-26.8-26.5-50-31.6-77.3a154 154 0 0 1 13.7-101.7 341 341 0 0 1 103.5-121.7c40.5-29.2 85.6-48 133-61a579 579 0 0 1 171.8-19.1c29.2 1 57.7 7.5 86.1 15.3a294 294 0 0 1 70.8 27.7c37.9 21.9 66 52.4 82 93.7 11.6 29.8 9.5 59 1.8 89.7-9 35.5-27.6 64.2-52.2 90.2-9.6 10.2-12.6 23.7-15.8 36.8-1 4.1-.2 8.7-7 10.8-8.1-10.3-9-23.3-9.4-35.3-1.2-37.5-3.1-74.7-11.2-111.4-1-4.6-2.9-9-4.5-14.3" fill="black"/></g><g id="mouth-variant01-06ffd362"><path d="M185.6 58.2c7.2 8.7 9.1 20 20.2 25 4.5 2 2.4 7.7-2.9 9.1a31 31 0 0 1-10.1.5c-22.4-1.6-44.7-3.4-67.2.5-7.7 1.3-16-.3-24-.7-4.3-.2-7.5-2.4-8-6.8s3.5-6.4 6.5-6.5c13.7-.4 21-10.2 28.8-19 6.8-8 15-9.4 24.8-9.5 11.1-.2 22.7-4 32 7.4m-15.5 60.3c-10 1.2-19.5 3.4-28-6.2 9.4-4.8 17.9-4.2 26-4.8 3-.2 6.9 1.9 7.6 5.7.5 2.9-2.3 4.1-5.6 5.3" fill="black"/></g><g id="nose-variant07-06ffd362"><path d="M109.6 184c-9.9 23.2-31.7 22.6-50.5 27.2-5.4 1.5-11.1 1-16.2-1.5.1-8.5 5.5-10.3 12-10.1 10.5.2 19.9-4 29.3-7.7 8.5-3.3 12-8.2 6.4-17.6-9-15.2-17.7-30.6-21.7-48.3a88 88 0 0 1 1.8-46.4c1.3-4 1.9-9.1 8-7.3 5 1.5 4.3 5.9 3.3 9.6-9.2 33 5 60 22.2 86.1 3 4.8 6.1 9.1 5.4 16" fill="black"/></g><g id="eyes-variant01-06ffd362"><path d="M224.4 58.4c-4.2-9.5-9.9-15.2-19.8-15.7-6-.3-7-5.1-8.9-9.8 2-1.5 3.5-3.7 5.3-3.8q31.8-2.6 63.5-.1c6 .4 9.3 8 3.2 10.4-10 4-12.5 13.2-18.5 19.8-8.2 9-15.2 9.1-24.8-.8m-191-29.6c12.2.7 23.1 1 34 2 3.6.3 8 1.8 8 6.7 0 5.6-4.6 5.2-8.3 5.1-6.3 0-9.7 2.7-12.5 8.6-3.4 7.4-6.9 15.3-18 14.8-10.5-.5-15.1-7.2-18.1-15.2-2.2-5.7-5-8.4-11-8.2-3.4.1-7.1-.2-7.5-4.9-.4-5 3-6 7-7.2a68 68 0 0 1 26.4-1.7" fill="black"/></g><g id="eyebrows-variant07-06ffd362"><path d="M29.3 32.1C57 10 88.8 13.1 120 14.1c5.7 0 12.2 1.3 14.3 8.4 2.1 7.6-4.6 9.8-8.8 13.7a45 45 0 0 1-52.2 8.6 38 38 0 0 0-31.9 1.6Q38.6 48 35.7 49c-6.3 2.5-14.3 6-18.6-.4-4.4-6.7 5.6-9 8.3-13.7.6-1 2-1.6 3.9-2.8m264.1-8.3q11.6 6.5 20 17c2.5 3 5 6.3 3 10.2-2.4 4.3-6.7 2.7-10.4 2.2-12.5-1.5-23.7-9.2-37-7.2-5 .8-9.9.7-15 2.5-13 4.7-31-6.4-33-19.8q-1.7-8 6.8-10c22.2-5.7 44-9 65.6 5.1" fill="black"/></g><clipPath id="clip-06ffd362"><rect width="1744" height="1744" rx="872" ry="872"/></clipPath></defs><g clip-path="url(#clip-06ffd362)"><rect width="1744" height="1744" fill="#fcff52"/><use transform="translate(532 491)" href="#head-variant01-06ffd362"/><use transform="translate(151 1029.3)" href="#clothes-variant23-06ffd362"/><use transform="translate(266 221.9)" href="#hair-variant25-06ffd362"/><use transform="translate(791 872)" href="#mouth-variant01-06ffd362"/><use transform="translate(901 669)" href="#nose-variant07-06ffd362"/><use transform="translate(805.2 732.6)" href="#eyes-variant01-06ffd362"/><use transform="translate(775 657)" href="#eyebrows-variant07-06ffd362"/></g></svg>